<?xml version="1.0" encoding="iso-8859-1"?>
<!-- Uploaded to: SVG Repo, www.svgrepo.com, Generator: SVG Repo Mixer Tools -->
<svg version="1.1" id="Layer_1" xmlns="http://www.w3.org/2000/svg" xmlns:xlink="http://www.w3.org/1999/xlink" 
	 viewBox="0 0 512 512" xml:space="preserve">
<rect x="124.817" y="469.026" style="fill:#D7D7D7;" width="262.378" height="33.391"/>
<rect x="256" y="469.026" style="fill:#B0B0B0;" width="131.183" height="33.391"/>
<path style="fill:#444444;" d="M512,366.083H0V9.582h512V366.083z"/>
<path style="fill:#232323;" d="M512,366.083H256V9.582h256V366.083z"/>
<path style="fill:#B0B0B0;" d="M332.164,482.301H179.836l15.027-129.488h122.274L332.164,482.301z"/>
<path style="fill:#8B8B8B;" d="M332.164,482.301H256V352.813h61.137L332.164,482.301z"/>
<path style="fill:#D7D7D7;" d="M512,366.083H0v-92.318h512V366.083z"/>
<path style="fill:#B0B0B0;" d="M512,366.083H256v-92.318h256V366.083z"/>
<circle style="fill:#444444;" cx="256" cy="320.302" r="19.784"/>
<path style="fill:#232323;" d="M275.784,320.307c0,10.927-8.858,19.784-19.784,19.784c0-17.308,0-30.471,0-39.569
	C266.927,300.523,275.784,309.38,275.784,320.307z"/>
</svg>